<svg xmlns="http://www.w3.org/2000/svg" xmlns:xlink="http://www.w3.org/1999/xlink" viewBox="0 0 399.48 179.59"><rect width="100%" height="100%" fill="white"/><defs><style>.cls-1{fill:#23478a;}.cls-2{fill:#fff;}.cls-3{fill:#bbd05f;}.cls-4{fill:#2573b2;}.cls-5{fill:#bcd560;}.cls-6{fill:#de5878;}.cls-7{fill:url(#radial-gradient);}.cls-8{fill:url(#linear-gradient);}.cls-9{fill:url(#radial-gradient-2);}.cls-10{fill:url(#linear-gradient-2);}.cls-11{fill:url(#linear-gradient-3);}.cls-12{fill:url(#linear-gradient-4);}.cls-13{fill:url(#linear-gradient-5);}.cls-14{fill:url(#linear-gradient-6);}.cls-15{fill:url(#linear-gradient-7);}.cls-16{fill:url(#linear-gradient-8);}.cls-17{fill:url(#radial-gradient-3);}</style><radialGradient id="radial-gradient" cx="81.5" cy="96.8" r="48.75" gradientUnits="userSpaceOnUse"><stop offset="0" stop-color="#0670a5"/><stop offset="1" stop-color="#7bd3f7"/></radialGradient><linearGradient id="linear-gradient" x1="125.13" y1="43.51" x2="115.77" y2="87.2" gradientUnits="userSpaceOnUse"><stop offset="0" stop-color="#203d76"/><stop offset="1" stop-color="#1e9ac8"/></linearGradient><radialGradient id="radial-gradient-2" cx="81.5" cy="96.8" r="48.75" xlink:href="#radial-gradient"/><linearGradient id="linear-gradient-2" x1="146.39" y1="156.51" x2="122.46" y2="99.29" gradientUnits="userSpaceOnUse"><stop offset="0" stop-color="#203d76"/><stop offset="1" stop-color="#2f8dbd"/></linearGradient><linearGradient id="linear-gradient-3" x1="89.08" y1="179.4" x2="81.28" y2="101.89" xlink:href="#linear-gradient-2"/><linearGradient id="linear-gradient-4" x1="24.21" y1="160.71" x2="146.01" y2="160.71" xlink:href="#linear-gradient-2"/><linearGradient id="linear-gradient-5" x1="162.45" y1="152.36" x2="128.64" y2="104.5" xlink:href="#linear-gradient-2"/><linearGradient id="linear-gradient-6" x1="124.82" y1="179.37" x2="77.48" y2="119.55" xlink:href="#linear-gradient-2"/><linearGradient id="linear-gradient-7" x1="-14.93" y1="194.55" x2="52.17" y2="121.72" xlink:href="#linear-gradient"/><linearGradient id="linear-gradient-8" x1="20.78" y1="94.27" x2="180.9" y2="94.27" gradientUnits="userSpaceOnUse"><stop offset="0" stop-color="#2f64a1"/><stop offset="1" stop-color="#2f8dbd"/></linearGradient><radialGradient id="radial-gradient-3" cx="15.06" cy="56.61" r="82.13" gradientTransform="matrix(1.03, -0.01, -0.01, 1, 30.8, -6.75)" xlink:href="#radial-gradient"/></defs><title>NIELIT</title><g id="Layer_2" data-name="Layer 2"><g id="Layer_1-2" data-name="Layer 1"><polygon class="cls-1" points="305.4 151.66 305.4 111.66 292.06 111.66 292.06 151.66 292.06 162.99 305.4 162.99 323.4 162.99 323.4 151.66 305.4 151.66"/><polygon class="cls-1" points="356.4 122.99 356.4 111.66 350.06 111.66 336.73 111.66 330.4 111.66 330.4 122.99 336.73 122.99 336.73 151.66 330.4 151.66 330.4 162.99 336.73 162.99 350.06 162.99 356.4 162.99 356.4 151.66 350.06 151.66 350.06 122.99 356.4 122.99"/><polygon class="cls-1" points="235.06 122.99 235.06 111.66 228.73 111.66 215.4 111.66 209.06 111.66 209.06 122.99 215.4 122.99 215.4 151.66 209.06 151.66 209.06 162.99 215.4 162.99 228.73 162.99 235.06 162.99 235.06 151.66 228.73 151.66 228.73 122.99 235.06 122.99"/><polygon class="cls-1" points="259.73 151.66 259.73 140.99 276.4 140.99 276.4 130.99 259.73 130.99 259.73 122.99 278.07 122.99 278.07 111.66 259.73 111.66 252.07 111.66 246.4 111.66 246.4 162.99 252.07 162.99 259.73 162.99 279.4 162.99 279.4 151.66 259.73 151.66"/><polygon class="cls-1" points="399.48 111.66 387.31 111.66 373.98 111.66 361.82 111.66 361.82 122.99 373.98 122.99 373.98 162.99 387.31 162.99 387.31 122.99 399.48 122.99 399.48 111.66"/><polygon class="cls-1" points="185.73 111.66 185.73 136.99 160.4 111.66 155.06 111.66 155.06 162.99 168.4 162.99 168.4 137.99 193.4 162.99 199.06 162.99 199.06 111.66 185.73 111.66"/><rect class="cls-1" x="352.74" y="84.02" width="4" height="5.42"/><rect class="cls-1" x="293.74" y="84.02" width="4" height="5.42"/><rect class="cls-1" x="238.74" y="84.02" width="4" height="5.42"/><rect class="cls-1" x="196.74" y="84.02" width="4" height="5.42"/><rect class="cls-1" x="388.67" y="46.07" width="4.8" height="5.42"/><path class="cls-1" d="M233.17,59.5H205.9v3.66h18.21v4h-.54c-.24-.12-.56,0-1,0h-4.22c-2.29,0-5.24.23-7.25,1.51a5.55,5.55,0,0,0-1.51,7,4.33,4.33,0,0,0,1.92,1.83q1.68,1.19,5.4,1.19c2.63,0,4.35,0,7,.18a3.13,3.13,0,0,1,1.81,4.12c-.73,2.12-3,2.78-5.19,2.78h-1.26c1.11-7.08-8.51-8.75-10.89-2.45a5.39,5.39,0,0,0-.17,3c.41,1.8,1.93,2.68,3.61,3,.4.09,4.39.71,4.48.43-.08,1.82.81,5,2.57,6.4a9.1,9.1,0,0,0,7.51,1.64c0-1.28-.2-2.88-.2-4.17l-1.09.06c-2.82.15-4.21-.54-5.22-4.15a22.27,22.27,0,0,0,2.58-.11c4.26-.45,8.25-3.8,7.8-8.78-.4-4.39-4.87-5.71-8.62-5.89-1.48-.07-2,0-3.46,0-1.25,0-4.27.37-4.8-1.18a1.8,1.8,0,0,1,1.27-2.4,9.64,9.64,0,0,1,3-.44c.56,0,1.12-.06,1.68-.06H228V63.16h5V62.8h.3Zm-17.1,26.61c-5.75.18-3.22-4-1.38-3A2.91,2.91,0,0,1,216.07,86.11Z"/><path class="cls-2" d="M214.69,83.16c-1.84-1.06-4.37,3.13,1.38,3A2.91,2.91,0,0,0,214.69,83.16Z"/><path class="cls-1" d="M177.51,59.5H155v3.66h5.32c3.14,0,6.27-.26,8.45,2.57.89,1.16.83,2.64.83,4a6.6,6.6,0,0,1-.6,2.76,4.67,4.67,0,0,1-1.74,1.68c-2.65,1.19-5.18,1-7.92.18l-1.22-.4L157,77.44l3.78.9v1.14a18.06,18.06,0,0,0,.13,1.94c.56,5.46,4.46,8.48,9.55,8.48a26.9,26.9,0,0,0,3.84-.29v-4c-.71.1-1.84.17-2,.18a9,9,0,0,1-4.24-.58,6.17,6.17,0,0,1-3.34-5.88v-.54l.06-.24a10.63,10.63,0,0,0,3.38-.54c.65-.28,1.23-.56,1.76-.84a8.48,8.48,0,0,0,4.17-5.81,10.91,10.91,0,0,0,.09-2.86,7.84,7.84,0,0,0-2.76-5.31h11.22V89.62l4.38.12V63.16h5.58V62.8h.3V59.5H177.51Z"/><path class="cls-1" d="M290,91.44a28,28,0,0,0-2.95-2,13.31,13.31,0,0,0-4.24-1.4V63.16h5.58V62.8h.3l-.12-3.3H249v3.66h5.32c3.14,0,6.27-.26,8.45,2.57.89,1.16.83,2.64.83,4a6.6,6.6,0,0,1-.6,2.76,4.67,4.67,0,0,1-1.74,1.68c-2.65,1.19-5.18,1-7.92.18l-1.22-.4L251,77.44l3.78.9v1.14a18.06,18.06,0,0,0,.13,1.94c.56,5.46,4.46,8.48,9.55,8.48a24.7,24.7,0,0,0,6.16-.76s-.18-4.2-.18-4.2c0,.35-3.75.8-4.12.82a9,9,0,0,1-4.24-.58,6.17,6.17,0,0,1-3.34-5.88v-.54l.06-.24a10.63,10.63,0,0,0,3.38-.54c.65-.28,1.23-.56,1.76-.84a8.48,8.48,0,0,0,4.17-5.81,10.91,10.91,0,0,0,.09-2.86,7.84,7.84,0,0,0-2.76-5.31h12.88V72.7h-7.38v4h7.38V88.27c-3.35.92-5.86,3.59-5.93,6.87a7.35,7.35,0,0,0,.71,3.22,7,7,0,0,0,4,3.72c4.61,1.6,9.52,0,10-5.22a12.84,12.84,0,0,1-2.63,0l-.87-.16c.49.1-.47,1.71-.65,1.88a3.91,3.91,0,0,1-2.44.73c-1.66,0-3.9-1-4.32-2.78a4,4,0,0,1,1.34-4.12,6.89,6.89,0,0,1,5.21-.92,7.67,7.67,0,0,1,3,1.12c3.12,1.92,5.19,4.83,6.89,8l1.86,3.54,3.48-1.88c.41-.23-5.17-8.06-6-8.89A14.18,14.18,0,0,0,290,91.44Z"/><path class="cls-1" d="M361,59.5v3.66h5.32c3.14,0,6.27-.26,8.45,2.57.89,1.16.83,2.64.83,4a6.6,6.6,0,0,1-.6,2.76,4.67,4.67,0,0,1-1.74,1.68c-2.65,1.19-5.18,1-7.92.18l-1.22-.4L363,77.44l3.78.9v1.14a18.06,18.06,0,0,0,.13,1.94c.56,5.46,4.46,8.48,9.55,8.48a26.9,26.9,0,0,0,3.84-.29v-4c-.71.1-1.84.17-2,.18a9,9,0,0,1-4.24-.58,6.17,6.17,0,0,1-3.34-5.88v-.54l.06-.24a10.63,10.63,0,0,0,3.38-.54c.65-.28,1.23-.56,1.76-.84a8.48,8.48,0,0,0,4.17-5.81,10.91,10.91,0,0,0,.09-2.86,7.84,7.84,0,0,0-2.76-5.31h12V72.7H382v4h7.38v12.9l4.5.18V63.16h5.57V59.5Z"/><path class="cls-1" d="M344.62,55.17c-.44-4.13-1.9-8.41-5.37-11a8.45,8.45,0,0,0-8.58-.91c-2,.87-2.89,2-2.82,2.08s2.72,3,2.72,3c-.23-.3.8-1.55,2.5-2.21,5.43-2.12,7.63,4.21,8.31,8.06a20.74,20.74,0,0,1,.34,5.1c-4.67-7.12-10.65-11.46-17.09-9.07a9.21,9.21,0,0,0-3.93,2.63l2,3.78c2.46-3.06,4.27-3.48,6.37-3.63,4-.29,6,2.57,9.81,6.56H303v3.66h5v5.59c0,2.59-.29,5.15.23,7.72A8.24,8.24,0,0,0,311,81.65c.6.48,4.65,2.47,5.42,1.86l-9.13,5.43,1.85,3.32,16.28-9.46v6.82l4.5.12V63.16h9.7V89.62l4.38.12V63.16h5.88V59.5l-4.92,0A36.84,36.84,0,0,0,344.62,55.17ZM325.37,70.76V75.5a5,5,0,0,1-3.32,4.31,7.76,7.76,0,0,1-8.51-1.45c-1.15-1.13-1.21-2.56-1.21-4.15v-11h13Z"/><path class="cls-3" d="M14.05,50.63a2.93,2.93,0,0,1-1-.16,3,3,0,0,1-1.89-3.8A44.8,44.8,0,0,1,68.78,18.81a3,3,0,1,1-2,5.64A38.82,38.82,0,0,0,16.89,48.59,3,3,0,0,1,14.05,50.63Z"/><path class="cls-3" d="M3,39a3,3,0,0,1-2.84-4A51.76,51.76,0,0,1,68.5,3.75a3,3,0,0,1-2.24,5.57A45.75,45.75,0,0,0,5.84,37,3,3,0,0,1,3,39Z"/><path class="cls-3" d="M25.17,62.3a3.17,3.17,0,0,1-1.08-.2,3,3,0,0,1-1.72-3.88A38.84,38.84,0,0,1,69,34.79a3,3,0,1,1-1.6,5.78A32.85,32.85,0,0,0,28,60.38,3,3,0,0,1,25.17,62.3Z"/><path class="cls-3" d="M14.05,50.63a2.93,2.93,0,0,1-1-.16,3,3,0,0,1-1.89-3.8A44.8,44.8,0,0,1,68.78,18.81a3,3,0,1,1-2,5.64A38.82,38.82,0,0,0,16.89,48.59,3,3,0,0,1,14.05,50.63Z"/><path class="cls-3" d="M25.17,62.3a3.17,3.17,0,0,1-1.08-.2,3,3,0,0,1-1.72-3.88A38.84,38.84,0,0,1,69,34.79a3,3,0,1,1-1.6,5.78A32.85,32.85,0,0,0,28,60.38,3,3,0,0,1,25.17,62.3Z"/><path class="cls-4" d="M93.63,44.41a12.33,12.33,0,1,0-13.88-.51,53.5,53.5,0,0,0-16.91,4.37,53.85,53.85,0,0,1,44.52,10.5,63.83,63.83,0,0,1,28.16,21.1A54,54,0,0,0,93.63,44.41Z"/><path class="cls-5" d="M73.93,47.12A53.73,53.73,0,0,0,35.29,63.48,53.73,53.73,0,0,1,79.06,54.9c1.88-.17,3.78-.27,5.7-.27a63.45,63.45,0,0,1,22.6,4.14A53.62,53.62,0,0,0,73.93,47.12Z"/><path class="cls-6" d="M66.6,53.43A53.78,53.78,0,0,0,25,73.12,12.35,12.35,0,1,0,17.21,85.8a53.81,53.81,0,0,0,8.64,56.71,63.48,63.48,0,0,1-4.77-24.2c0-1.91.1-3.79.26-5.66A63.65,63.65,0,0,1,79.06,54.9,53.86,53.86,0,0,0,66.6,53.43Z"/><path class="cls-7" d="M95.12,70.38a89.2,89.2,0,0,1,13.16,1c.28-2.9.47-5.83.54-8.79a61,61,0,0,0-48.6.54A103.17,103.17,0,0,1,78.46,72,88.78,88.78,0,0,1,95.12,70.38Z"/><path class="cls-8" d="M130.05,77.6a60.91,60.91,0,0,0-21.23-15c-.07,3-.26,5.89-.54,8.79A87.39,87.39,0,0,1,130.05,77.6Z"/><path class="cls-9" d="M26,103.85A88,88,0,0,1,78.46,72a103.17,103.17,0,0,0-18.24-8.86A61,61,0,0,0,26,103.85Z"/><path class="cls-10" d="M141,94.45a103.47,103.47,0,0,1-19.47,29.71,103.62,103.62,0,0,1,6.56,36.4c0,.43,0,.86,0,1.29A60.92,60.92,0,0,0,141,94.45Z"/><path class="cls-11" d="M121.52,124.16a103.21,103.21,0,0,1-60.34,31.67,120.66,120.66,0,0,1-14.92,9.75,60.87,60.87,0,0,0,81.8-3.73c0-.43,0-.86,0-1.29A103.62,103.62,0,0,0,121.52,124.16Z"/><path class="cls-12" d="M46,156.94q-4.31,0-8.53-.35a61.32,61.32,0,0,0,8.8,9,120.66,120.66,0,0,0,14.92-9.75A104,104,0,0,1,46,156.94Z"/><path class="cls-13" d="M125.09,84.83c1.84,8.75-2.22,17.81-10.17,25.16a103.78,103.78,0,0,1,6.6,14.17A103.47,103.47,0,0,0,141,94.45,60.85,60.85,0,0,0,130.05,77.6a87,87,0,0,0-11.37-4A22,22,0,0,1,125.09,84.83Z"/><path class="cls-14" d="M91,122.84a121.72,121.72,0,0,1-29.79,33,103.21,103.21,0,0,0,60.34-31.67,103.78,103.78,0,0,0-6.6-14.17A58.79,58.79,0,0,1,91,122.84Z"/><path class="cls-15" d="M61.18,155.83a121.72,121.72,0,0,0,29.79-33c-1.43.4-2.89.76-4.39,1.08-24.72,5.21-47.55-3.84-51-20.21a21.43,21.43,0,0,1,.51-10.57,88.46,88.46,0,0,0-10,10.71,60.9,60.9,0,0,0,11.42,52.74q4.23.34,8.53.35A104,104,0,0,0,61.18,155.83Z"/><path class="cls-16" d="M125.09,84.83a22,22,0,0,0-6.41-11.24,32.89,32.89,0,0,0-10.06-6.51c-9.37-4-21.7-5.17-34.54-2.46q-3.26.69-6.33,1.65C51.5,71.34,39.45,81.81,36.08,93.14a21.43,21.43,0,0,0-.51,10.57c3.46,16.37,26.29,25.42,51,20.21,1.5-.32,3-.68,4.39-1.08a58.79,58.79,0,0,0,24-12.85C122.87,102.64,126.93,93.58,125.09,84.83Z"/><path class="cls-17" d="M128.22,84.17c3.46,16.37-14.48,34-40.07,39.42S39,120.08,35.57,103.71s14.49-34,40.08-39.42S124.77,67.79,128.22,84.17Z"/><path class="cls-2" d="M141.53,95.8c-.18-.45.62-2.71.43-3.16s-1.37.94-1.57.51L140,94q-.85,2-1.8,3.93c-.21.44-.44.87-.66,1.31-.42.85-.84,1.69-1.29,2.53-.27.51-.57,1-.85,1.51-.42.75-.83,1.5-1.26,2.24-.32.53-.65,1-1,1.57-.43.7-.85,1.4-1.3,2.08s-.71,1.06-1.06,1.58c-.45.67-.9,1.33-1.37,2s-.75,1-1.14,1.55-.94,1.28-1.43,1.91-.81,1-1.21,1.51-1,1.24-1.52,1.85l-1.27,1.46c-.33.38-.66.74-1,1.11-.18-.45-.37-.9-.56-1.35s-.48-1.18-.73-1.77c-.32-.74-.66-1.48-1-2.21-.26-.57-.51-1.14-.79-1.7-.35-.75-.73-1.49-1.11-2.22-.27-.54-.54-1.08-.82-1.62-.41-.76-.84-1.51-1.26-2.26-.28-.5-.55-1-.84-1.49-.48-.82-1-1.62-1.49-2.43-.25-.41-.5-.82-.76-1.23-.72-1.13-1.48-2.25-2.25-3.35-.08-.11-.15-.22-.22-.33-.8-1.13-1.62-2.24-2.47-3.35l-1-1.23c-.51-.65-1-1.3-1.53-1.93h0c.13-.44.24-.88.37-1.32s.21-.73.3-1.1c.17-.6.32-1.2.47-1.81.07-.3.16-.6.23-.9.22-.9.43-1.81.63-2.72.05-.22.09-.43.14-.65.14-.7.29-1.4.43-2.09.07-.35.13-.69.19-1,.11-.58.22-1.15.31-1.73.07-.38.13-.76.19-1.14.09-.54.18-1.09.26-1.63s.11-.8.17-1.2l.21-1.57c0-.42.1-.83.14-1.25s.08-.63.11-1a86.79,86.79,0,0,1,20.41,6l1,.42,3.15,1.39c-.26-.29-2.16-2.86-2.42-3.15-.6-.65-2.5-.92-3.13-1.54a88.46,88.46,0,0,0-18.78-5.21v0h0c.22-2.48.37-5,.44-7.41-.35-.16-.69-2.06-1-2.21s-.7,1.46-1,1.32v.39c-.06,2.51-.22,5.07-.45,7.62a89.69,89.69,0,0,0-28.63.69h-.05a104.75,104.75,0,0,0-17-8.33c-.46.19-2.64-1.19-3.1-1-.65.29,1.07,1.86.43,2.17l.92.36A104,104,0,0,1,75.63,71.5a89.07,89.07,0,0,0-48.88,29.83c-.25.83-.5,1.67-.71,2.52-.09.37-1.74,4.6-1.83,5l2-3.49.66-.84A87,87,0,0,1,78.25,73.1c.61.37,1.2.77,1.8,1.16s1,.63,1.5,1c.69.47,1.36,1,2,1.43l1.33.94c.79.58,1.57,1.18,2.34,1.79.31.24.62.46.92.7q1.6,1.28,3.15,2.61c.35.3.68.61,1,.92.69.6,1.37,1.2,2,1.83.41.38.8.78,1.21,1.17.58.56,1.17,1.12,1.73,1.69s.83.87,1.24,1.3,1.08,1.12,1.6,1.7.8.91,1.2,1.36l1.33,1.52c-.22.72-.45,1.43-.68,2.14s-.43,1.37-.66,2.05-.59,1.62-.88,2.42-.48,1.34-.74,2-.65,1.61-1,2.41c-.26.64-.52,1.3-.79,1.93-.36.82-.74,1.62-1.11,2.43-.28.61-.56,1.23-.85,1.85-.39.81-.81,1.62-1.23,2.42-.3.59-.59,1.19-.9,1.77-.43.82-.89,1.62-1.34,2.43-.32.56-.62,1.13-.94,1.68-.49.83-1,1.65-1.5,2.47-.32.52-.62,1-1,1.55-.54.86-1.11,1.69-1.67,2.53-.31.46-.61.94-.93,1.4-.62.9-1.27,1.78-1.91,2.66-.28.39-.55.78-.84,1.16-.77,1-1.57,2-2.37,3-.18.23-.35.46-.53.68q-3,3.66-6.23,7.09c-.28.3-.58.59-.88.89-.8.83-1.6,1.66-2.43,2.47-.39.38-.8.74-1.19,1.12-.75.7-1.49,1.42-2.26,2.1-.45.41-.91.79-1.37,1.19-.73.64-1.45,1.28-2.2,1.9-.48.41-1,.79-1.48,1.19-.69.56-1.39,1.12-2.1,1.67l-1.29.17-1.47.19-1.19.13-1.72.17-.91.07-2,.15-.56,0c-.79.05-1.58.09-2.37.11h-.1a102,102,0,0,1-11.58-.3l-.95-.07c.28.37-1.53,1.51-1.24,1.88s2.73,0,3,.37l-1-.06,1,.07c1,.07,2,.13,2.92.17l.6,0c1.24.05,2.48.07,3.71.08h.8c2.28,0,4.57-.1,6.85-.25l.74-.06c1.08-.08,2.16-.18,3.24-.29a119.52,119.52,0,0,1-11.52,7.25l-.34.19c.29.24-1.37,1.69-1.08,1.93s2.53-.72,2.83-.48a123.11,123.11,0,0,0,14.44-9.45h0a104.72,104.72,0,0,0,59.46-30.7A102.34,102.34,0,0,1,127,160.56c0,.28,0,.55,0,.82l0,1.49c.36-.34,1.66,3.27,2,2.92s-.22-4.69.14-5.06v-.17a104.49,104.49,0,0,0-6.4-36.15h0c.45-.49.88-1,1.32-1.49s1-1.08,1.44-1.63,1-1.21,1.49-1.82.91-1.09,1.34-1.64,1-1.28,1.44-1.91.83-1.1,1.24-1.67.92-1.34,1.38-2,.77-1.1,1.13-1.66.9-1.43,1.34-2.15c.34-.54.69-1.08,1-1.63.45-.77.88-1.55,1.32-2.33.29-.52.59-1,.87-1.55.47-.88.91-1.77,1.35-2.65.23-.45.46-.88.68-1.33a20.27,20.27,0,0,1,1.43-3.14c1.12-1.53.29-.62.43-.93ZM99.69,87.7c-.33-.34-.65-.69-1-1-.74-.75-1.5-1.49-2.26-2.22-.2-.18-.4-.38-.6-.57-1-.9-2-1.79-3-2.66L92,80.51c-.73-.62-1.46-1.23-2.21-1.83-.38-.31-.77-.6-1.16-.91l-2-1.53-1.27-.93c-.68-.48-1.35-1-2-1.42L82.06,73l-.71-.48a87.33,87.33,0,0,1,25.77-.27l-.06.47c-.15,1.45-.33,2.9-.55,4.34l-.06.39c-.21,1.42-.45,2.83-.71,4.24,0,.18-.07.36-.1.54-.28,1.43-.58,2.85-.91,4.27-.06.26-.11.51-.18.77-.33,1.4-.68,2.8-1.07,4.19,0,.08,0,.17-.07.26-.29-.34-.6-.66-.9-1s-.69-.77-1-1.16C100.88,89,100.29,88.32,99.69,87.7ZM65.08,154.1l.28-.24c.45-.37.9-.76,1.34-1.14.74-.63,1.47-1.25,2.19-1.89.48-.42.94-.86,1.41-1.29.67-.62,1.34-1.24,2-1.88.48-.45.94-.92,1.41-1.38.63-.63,1.26-1.26,1.88-1.91.47-.48.93-1,1.38-1.46L78.76,141c.45-.51.89-1,1.33-1.53s1.14-1.33,1.7-2l1.29-1.57c.55-.69,1.09-1.39,1.62-2.09.41-.53.82-1.06,1.21-1.59.54-.73,1.06-1.46,1.58-2.19.37-.53.75-1.06,1.12-1.6.53-.77,1-1.55,1.55-2.34l1-1.53c.56-.89,1.09-1.79,1.63-2.69.25-.42.52-.85.77-1.28q1.16-2,2.24-4c.13-.25.25-.51.38-.76.58-1.12,1.16-2.24,1.7-3.37.25-.52.49-1,.73-1.57.41-.87.82-1.75,1.2-2.64.26-.59.5-1.19.75-1.79.35-.82.7-1.65,1-2.48.25-.63.48-1.27.72-1.91.3-.81.6-1.62.88-2.44.23-.65.45-1.31.67-2,.15-.47.32-.94.47-1.41l.83,1c.37.47.74,1,1.1,1.43q.73,1,1.44,2c.35.49.7,1,1,1.46.47.67.92,1.35,1.37,2l1,1.47c.45.71.89,1.44,1.32,2.16.28.47.58.94.85,1.42.47.8.91,1.61,1.35,2.42.22.42.46.83.68,1.24.62,1.19,1.23,2.4,1.81,3.61l.15.33c.56,1.19,1.1,2.4,1.62,3.61.2.46.37.94.56,1.4.3.73.6,1.46.88,2.2A102.66,102.66,0,0,1,65.08,154.1Z"/></g></g></svg>